<?xml version="1.0" encoding="UTF-8" standalone="no"?>
<!-- Created with Inkscape (http://www.inkscape.org/) -->

<svg
   version="1.1"
   id="svg1"
   width="1166.3104"
   height="1877.0834"
   viewBox="0 0 1166.3104 1877.0834"
   sodipodi:docname="Stash Keyhole.svg"
   inkscape:version="1.3.2 (091e20e, 2023-11-25, custom)"
   xmlns:inkscape="http://www.inkscape.org/namespaces/inkscape"
   xmlns:sodipodi="http://sodipodi.sourceforge.net/DTD/sodipodi-0.dtd"
   xmlns="http://www.w3.org/2000/svg"
   xmlns:svg="http://www.w3.org/2000/svg">
  <defs
     id="defs1" />
  <sodipodi:namedview
     id="namedview1"
     pagecolor="#ffffff"
     bordercolor="#000000"
     borderopacity="0.25"
     inkscape:showpageshadow="2"
     inkscape:pageopacity="0.0"
     inkscape:pagecheckerboard="0"
     inkscape:deskcolor="#d1d1d1"
     inkscape:zoom="0.38722826"
     inkscape:cx="596.54737"
     inkscape:cy="819.92982"
     inkscape:window-width="1920"
     inkscape:window-height="1111"
     inkscape:window-x="-9"
     inkscape:window-y="-9"
     inkscape:window-maximized="1"
     inkscape:current-layer="g1" />
  <g
     inkscape:groupmode="layer"
     inkscape:label="Image"
     id="g1"
     transform="translate(-380.56541,-120.36577)">
    <path
       style="fill:#000000;fill-opacity:1"
       d="m 381.06433,1995.1991 c 0.27441,-1.2375 1.63917,-7.65 3.03281,-14.25 1.39364,-6.6 3.17697,-14.7 3.96297,-18 2.20214,-9.2457 6.43155,-28.4326 7.4947,-34 0.92032,-4.8194 5.50249,-26.5351 10.6559,-50.5 1.36013,-6.325 3.11734,-14.65 3.90491,-18.5 2.17914,-10.6526 8.74768,-41.5549 13.81626,-65 2.49699,-11.55 5.513,-25.725 6.70223,-31.5 1.18924,-5.775 3.20371,-15.45 4.47661,-21.5 1.2729,-6.05 5.24341,-24.95 8.82335,-42 6.42824,-30.6155 9.44274,-44.2879 12.34693,-56 0.81828,-3.3 1.84902,-8.25 2.29053,-11 0.95184,-5.9287 6.70814,-33.4435 8.07875,-38.616 0.52699,-1.9888 4.54851,-20.8888 8.93672,-42 4.38821,-21.1112 9.13123,-43.334 10.54004,-49.384 1.40881,-6.05 5.25002,-24.05 8.53603,-40 3.28601,-15.95 6.18217,-29.675 6.43592,-30.5 0.25374,-0.825 2.73133,-12.525 5.50576,-26 2.77442,-13.475 7.05275,-33.5256 9.50739,-44.5569 2.45464,-11.0313 5.80855,-26.5563 7.45313,-34.5 3.27915,-15.839 5.7815,-27.6925 11.91552,-56.4431 2.22953,-10.45 4.52653,-21.25 5.10444,-24 0.57791,-2.75 2.63479,-12.2 4.57083,-21 6.50546,-29.5695 7.45049,-33.9372 11.03486,-51 1.96415,-9.35 4.05938,-19.7102 4.65605,-23.0226 l 1.08486,-6.0226 -6.40268,-5.9774 c -17.04169,-15.9097 -23.11563,-22.1028 -35.28508,-35.9774 -20.52251,-23.398 -32.32844,-38.6269 -44.18834,-57 -3.19523,-4.95 -6.83591,-10.575 -8.0904,-12.5 -6.99152,-10.7285 -24.6551,-45.40378 -32.46986,-63.74158 -5.26601,-12.3569 -14.64602,-40.7214 -19.26579,-58.2584 -8.92227,-33.8696 -12.86118,-61.7416 -15.12137,-107 -1.91226,-38.2914 7.05147,-104.03274 19.63416,-144 1.64497,-5.225 3.37947,-10.4 3.85446,-11.5 0.475,-1.1 1.81273,-4.925 2.97276,-8.5 10.69827,-32.97035 34.56362,-80.1402 56.41287,-111.5 27.25173,-39.11387 233.31091,-266.96066 271.621,-299.62033 12.1259,-10.33749 17.2593,-14.33368 34.5,-26.8572 23.157,-16.82114 64.5993,-38.96244 96,-51.28985 40.1781,-15.77329 85.0503,-26.49533 126.49154,-30.22473 20.6158,-1.85526 63.2546,-2.14529 83.5085,-0.56801 49.3871,3.84602 107.8339,18.76055 151,38.5324 23.6666,10.84029 43.6385,21.6804 62.5,33.92314 41.5046,26.93999 69.2473,51.31015 105.42,92.60458 11.8852,13.56804 30.5752,40.08958 44.0358,62.48776 7.515,12.50492 24.4632,45.3558 26.0598,50.51224 0.4258,1.375 3.1247,7.9 5.9976,14.5 18.1845,41.77572 30.0266,96.55193 33.67,155.74223 1.9109,31.0434 -1.0921,72.73271 -7.798,108.25777 -0.2076,1.1 -0.6495,3.575 -0.9819,5.5 -4.8901,28.32072 -22.3729,80.0424 -36.7112,108.6077 -8.7335,17.3991 -21.0655,39.4788 -28.1453,50.3923 -19.2127,29.6161 -41.5008,56.9399 -68.7843,84.325 -10.1152,10.1528 -16.7625,17.5925 -16.7625,18.7605 0,1.0646 0.9399,6.0934 2.0886,11.1751 1.1487,5.0817 3.3547,15.3144 4.9022,22.7394 1.5475,7.425 5.3564,24.97498 8.4643,38.99998 3.1079,14.025 6.5129,29.8492 7.5666,35.1649 1.0536,5.3156 4.3686,20.8406 7.3665,34.5 2.9978,13.6593 6.6146,30.4601 8.0371,37.3351 1.4226,6.875 3.2809,15.65 4.1297,19.5 0.8487,3.85 2.1594,9.925 2.9127,13.5 0.7533,3.575 2.1274,9.875 3.0535,14 0.9262,4.125 3.4112,15.825 5.5223,26 2.1111,10.175 4.96,23.675 6.331,30 8.2161,37.9061 9.7266,45.0321 10.5986,50 0.531,3.025 1.695,8.65 2.5866,12.5 0.8917,3.85 1.9852,8.575 2.4299,10.5 0.4448,1.925 1.2829,5.75 1.8625,8.5 0.5796,2.75 1.9844,9.275 3.1217,14.5 1.1373,5.225 2.492,11.525 3.0103,14 4.1672,19.8981 7.2371,34.287 9.4942,44.5 2.5752,11.6524 10.7851,50.7717 14.481,69 1.0036,4.95 3.435,16.2 5.4031,25 1.9682,8.8 5.1757,23.65 7.1279,33 3.467,16.6049 5.6895,26.9278 7.5354,35 0.503,2.2 2.0845,9.625 3.5143,16.5 2.7184,13.0708 7.063,33.1385 12.9358,59.75 1.9117,8.6625 4.8263,22.275 6.4768,30.25 1.6506,7.975 4.3825,20.8 6.0711,28.5 1.6885,7.7 5.0734,23.675 7.5221,35.5 2.4487,11.825 7.2138,34.0028 10.5893,49.284 l 6.1371,27.7839 -6.9033,7.2161 c -3.7968,3.9688 -10.4955,11.2627 -14.8861,16.2087 -7.9019,8.9015 -26.0799,28.8839 -35.9398,39.5073 -2.8076,3.025 -14.3159,15.6002 -25.5739,27.945 -11.258,12.3447 -25.6441,28.1166 -31.9691,35.0487 -6.325,6.9321 -20.05,22.0131 -30.5,33.5133 -10.45,11.5002 -24.1132,26.4408 -30.3628,33.2012 l -11.3628,12.2918 H 869.97166 380.56541 Z m 862.78027,-94.5269 c -0.2223,-1.0965 -10.4431,-47.777 -14.7186,-67.2231 -0.786,-3.575 -2.3691,-11 -3.5179,-16.5 -1.1489,-5.5 -2.4979,-11.8 -2.9979,-14 -0.4999,-2.2 -4.8014,-21.775 -9.5588,-43.5 -4.7574,-21.725 -9.3021,-42.425 -10.0993,-46 -0.7972,-3.575 -3.2367,-15.05 -5.4211,-25.5 -2.1845,-10.45 -4.6246,-21.7 -5.4226,-25 -3.4743,-14.3674 -7.0343,-30.6147 -26.0742,-119 -3.5545,-16.5 -8.6803,-39.9 -11.3907,-52 -2.7105,-12.1 -5.8504,-26.5729 -6.9777,-32.1619 -1.1273,-5.589 -3.8748,-18.189 -6.1055,-28 -5.1862,-22.8087 -7.7729,-34.5655 -8.9852,-40.8381 -0.5315,-2.75 -1.3896,-6.8 -1.9069,-9 -0.5174,-2.2 -1.8523,-8.275 -2.9666,-13.5 -1.1143,-5.225 -2.9301,-13.55 -4.0351,-18.5 -1.105,-4.95 -4.0042,-18.225 -6.4426,-29.5 -6.6859,-30.9149 -15.0361,-69.1152 -22.2961,-102 -3.582,-16.225 -7.801,-35.575 -9.3756,-43 -1.5746,-7.425 -3.5169,-16.425 -4.3163,-20 -2.242,-10.0271 -4.7541,-21.0845 -5.7932,-25.5 -0.5178,-2.2 -1.6012,-7.6 -2.4076,-12 -0.8064,-4.4 -1.8848,-8.982 -2.3965,-10.1821 -0.7888,-1.8503 -0.444,-2.4794 2.2674,-4.1373 10.3842,-6.3492 33.9465,-23.7321 36.6976,-27.0733 0.275,-0.334 3.2,-2.8573 6.5,-5.6073 15.4023,-12.8352 36.9866,-35.6504 50.1408,-53 7.1164,-9.3862 18.3592,-25.35608 18.3592,-26.07848 0,-0.2764 0.8394,-1.7218 1.8653,-3.212 8.2622,-12.0015 20.3836,-35.0677 27.6992,-52.7095 14.9992,-36.1712 23.5559,-72.8347 27.4228,-117.5 3.9123,-45.1898 -4.5482,-103.88087 -21.6948,-150.5 -5.6802,-15.44341 -21.8433,-49.61682 -29.3244,-62 -29.9837,-49.63062 -68.1287,-89.7879 -114.3035,-120.33342 -20.3464,-13.45954 -45.3677,-26.6173 -67.6646,-35.58231 -7.975,-3.20654 -15.85004,-6.39638 -17.50004,-7.08853 -8.96,-3.75859 -44.6366,-12.82564 -60.5,-15.37579 -6.875,-1.10521 -17.9,-2.52782 -24.5,-3.16136 -15.4338,-1.4815 -52.4296,-1.48077 -68.5,10e-4 -38.941,3.59138 -80.5616,14.32104 -114.5,29.51774 -51.69073,23.14568 -96.7851,56.18011 -131.75999,96.52233 -25.68647,29.62839 -46.35282,62.04851 -62.40235,97.89309 -5.25303,11.73194 -14.56382,38.87615 -18.33174,53.4434 -4.29629,16.60999 -9.39579,45.92337 -10.98824,63.16355 -1.31425,14.2282 -1.29901,46.813 0.0287,61.5 3.07605,34.0255 12.93646,73.6713 26.98533,108.5 9.42068,23.3549 27.53083,55.2315 43.8708,77.21918 13.76631,18.5246 21.73946,27.6437 38.7583,44.3293 18.7937,18.4257 33.22749,30.483 52.61792,43.9545 5.57678,3.8745 7.60852,5.8421 7.17723,6.9507 -0.33087,0.8505 -1.05531,4.0213 -1.60985,7.0463 -0.55455,3.025 -2.79245,13.6 -4.97312,23.5 -2.18066,9.9 -5.71949,26.325 -7.86405,36.5 -5.19442,24.6452 -9.43009,44.4208 -11.99442,56 -3.53692,15.9709 -6.1356,28.1607 -7.56803,35.5 -0.75142,3.85 -2.46486,12.175 -3.80765,18.5 -10.26814,48.3664 -17.96076,84.5156 -19.15217,90 -2.00651,9.2365 -7.18505,33.7263 -9.62131,45.5 -2.62813,12.7009 -3.88437,18.5758 -7.80489,36.5 -1.74435,7.975 -5.60181,26.3068 -8.57212,40.7373 -2.97031,14.4305 -5.84735,27.9305 -6.39343,30 -1.09958,4.1671 -4.35853,19.4655 -6.12716,28.7627 -1.39269,7.3209 -9.43141,45.4992 -15.58125,74 -2.49224,11.55 -6.07518,28.2 -7.96209,37 -1.88691,8.8 -3.87229,17.8 -4.41196,20 -0.53967,2.2 -3.05512,14.125 -5.5899,26.5 -5.30313,25.8904 -6.56495,31.9014 -9.44629,45 -1.14935,5.225 -3.39625,15.8 -4.9931,23.5 -2.92524,14.1055 -4.27512,20.3849 -9.88845,46 -1.6874,7.7 -5.09076,23.9547 -7.56303,36.1215 -2.47227,12.1668 -5.17165,24.9918 -5.99863,28.5 -0.82698,3.5082 -1.51025,7.1666 -1.51838,8.1298 -0.0141,1.6658 18.14611,1.7391 371.73522,1.5 300.94444,-0.2034 371.70074,-0.4945 371.49104,-1.5282 z m -683.21723,-48.9731 c 0.0131,-0.4125 0.46549,-2.55 1.00527,-4.75 0.53978,-2.2 3.92258,-17.95 7.51733,-35 3.59476,-17.05 7.67529,-36.175 9.06786,-42.5 4.57377,-20.774 6.3999,-29.2894 9.86468,-46 1.88161,-9.075 4.37426,-20.775 5.53922,-26 2.64205,-11.8499 7.91544,-37.0781 12.54168,-60 1.94258,-9.625 4.89041,-23.35 6.55072,-30.5 1.66032,-7.15 5.94727,-26.95 9.52656,-44 3.57929,-17.05 7.39955,-35.05 8.48946,-40 1.08992,-4.95 4.17494,-19.575 6.85559,-32.5 2.68066,-12.925 5.77393,-27.325 6.87392,-32 1.1,-4.675 2.96921,-13.225 4.15381,-19 3.12675,-15.2431 7.40455,-35.7357 10.33306,-49.5 1.40422,-6.6 4.34369,-20.55 6.53216,-31 2.18846,-10.45 5.64977,-26.65 7.69179,-36 2.04202,-9.35 4.54867,-20.825 5.57033,-25.5 1.02166,-4.675 3.19737,-15.025 4.8349,-23 1.63754,-7.975 3.84203,-18.55 4.89887,-23.5 4.05998,-19.0161 8.21534,-38.1646 9.11426,-42 0.51564,-2.2 1.15774,-5.35 1.4269,-7 0.74764,-4.5832 7.32802,-35.6249 10.17532,-48 1.392,-6.05 2.9542,-12.9125 3.4717,-15.25 0.5174,-2.3375 1.3842,-6.1625 1.9263,-8.5 0.542,-2.3375 1.6588,-7.85 2.4816,-12.25 0.8229,-4.4 2.4487,-12.275 3.613,-17.5 3.0146,-13.5285 3.9576,-18.2981 3.6706,-18.5647 -0.1379,-0.1281 -6.2104,-3.8427 -13.4945,-8.2547 -47.58799,-28.8242 -85.26769,-65.2451 -114.50589,-110.68058 -11.37531,-17.677 -25.16172,-46.514 -32.36671,-67.7014 -7.09904,-20.8759 -13.00292,-50.9367 -15.47588,-78.7986 -2.22524,-25.0709 0.38824,-57.5284 7.5864,-94.21749 1.26953,-6.4708 7.75585,-27.52843 11.83915,-38.43544 19.91626,-53.19874 49.6097,-95.50793 94.21605,-134.24527 14.5467,-12.63274 28.32579,-22.18551 53.45068,-37.05629 11.0384,-6.5334 44.744,-20.78405 60,-25.36784 46.8033,-14.06254 94.5431,-18.05545 137.6013,-11.50881 8.9712,1.36399 9.2594,1.20962 -9.1013,4.87428 -28.5259,5.69351 -61.8623,19.11906 -91,36.64837 -22.8694,13.75822 -39.4952,26.60856 -58.1995,44.98319 -18.7059,18.37624 -30.0675,32.2809 -43.9809,53.8253 -13.44071,20.81255 -22.08191,37.80039 -30.52017,60 -7.09234,18.65873 -8.37338,22.59395 -11.71915,36 -7.59492,30.43184 -10.50681,56.3193 -9.84224,87.5 1.32651,62.238 19.83827,120.7046 54.93726,173.511 7.4959,11.2777 13.5805,18.9443 27.0329,34.06198 23.5499,26.4652 48.8137,46.8832 80.2918,64.8912 5.5,3.1464 10.0993,5.816 10.2207,5.9324 0.2659,0.2549 -1.2491,8.5536 -2.5748,14.1034 -0.5255,2.2 -1.8669,8.725 -2.9809,14.5 -1.114,5.775 -2.9961,14.775 -4.1825,20 -1.1864,5.225 -5.0011,23.45 -8.4772,40.5 -3.476,17.05 -7.9164,38.2 -9.8676,47 -1.9511,8.8 -5.6024,26.125 -8.1138,38.5 -2.5114,12.375 -5.2127,25.2 -6.0027,28.5 -0.79,3.3 -2.7915,12.75 -4.4478,21 -4.9375,24.5947 -11.7691,57.108 -14.9772,71.2804 -1.6534,7.3042 -3.4497,15.6292 -3.9919,18.5 -0.5422,2.8708 -2.8362,13.9946 -5.0977,24.7196 -2.2615,10.725 -5.9079,28.05 -8.103,38.5 -2.1951,10.45 -4.424,21.025 -4.9531,23.5 -0.5291,2.475 -1.3943,6.75 -1.9227,9.5 -0.9086,4.7293 -2.3172,11.2496 -7.0746,32.75 -1.1257,5.0875 -4.0026,18.7 -6.393,30.25 -2.3905,11.55 -4.6102,22.125 -4.9329,23.5 -1.2302,5.2432 -8.0344,37.3675 -12.179,57.5 -2.3777,11.55 -5.7398,27.525 -7.4713,35.5 -1.73151,7.975 -5.33976,25.075 -8.01834,38 -2.67857,12.925 -6.49461,31.15 -8.48008,40.5 -1.98547,9.35 -5.36072,25.55 -7.50055,36 -2.13983,10.45 -4.83023,23.275 -5.97866,28.5 -1.14844,5.225 -2.48854,11.525 -2.97802,14 -0.79926,4.0414 -4.2342,19.987 -5.54697,25.75 l -0.51253,2.25 h -53.98095 c -29.68952,0 -53.97021,-0.3375 -53.95709,-0.75 z"
       id="path1"
       sodipodi:nodetypes="ssssssssssssssssssssssssscssssssssssssssssssssssssssssssssssssssssssssssssssssssssscssssssscccscssssssssssssssssssssssssssssssssssssscssssssssssssssssssssssssssssssssssccssssssssssssssssssssssssssssssssssssssssssssssssssssssssssssssssssssssssscss" />
  </g>
</svg>
